<svg id="Layer_1" data-name="Layer 1" xmlns="http://www.w3.org/2000/svg" xmlns:xlink="http://www.w3.org/1999/xlink" viewBox="0 0 75 75"><defs><style>.cls-1{fill:url(#linear-gradient);}</style><linearGradient id="linear-gradient" x1="-5.53" y1="-5.53" x2="100.96" y2="100.96" gradientUnits="userSpaceOnUse"><stop offset="0" stop-color="#8bf4cc"/><stop offset="0.11" stop-color="#85ebc9"/><stop offset="0.31" stop-color="#76d1c1"/><stop offset="0.55" stop-color="#5ea8b5"/><stop offset="0.83" stop-color="#3c6fa3"/><stop offset="0.99" stop-color="#274b98"/></linearGradient></defs><path class="cls-1" d="M0,0V75H75V0ZM55,60.06l-9.47-5.47L37,59.5l-8.53-4.91L19,60.06v-5.5a8.47,8.47,0,0,1,4.24-7.34l5.22-3L37,49.13l8.54-4.93,5.22,3A8.47,8.47,0,0,1,55,54.56Zm0-18a9,9,0,0,1-9-9,9,9,0,1,0-18,0,9,9,0,0,1-9,9v-9a18,18,0,0,1,36,0Z"/></svg>