<?xml version="1.0" standalone="no"?>
<!DOCTYPE svg PUBLIC "-//W3C//DTD SVG 20010904//EN"
 "http://www.w3.org/TR/2001/REC-SVG-20010904/DTD/svg10.dtd">
<svg version="1.0" xmlns="http://www.w3.org/2000/svg"
 width="700.000000pt" height="700.000000pt" viewBox="0 0 700.000000 700.000000"
 preserveAspectRatio="xMidYMid meet">
<metadata>
Created by potrace 1.14, written by Peter Selinger 2001-2017
</metadata>
<g transform="translate(0.000000,700.000000) scale(0.100000,-0.100000)"
fill="#000000" stroke="none">
<path d="M1617 6985 c-299 -41 -580 -153 -840 -335 -119 -84 -343 -307 -427
-427 -138 -198 -234 -402 -290 -617 -62 -241 -60 -176 -60 -2109 0 -1169 4
-1791 10 -1847 27 -216 85 -412 180 -605 96 -197 192 -330 358 -498 286 -291
656 -475 1067 -532 97 -14 340 -15 1940 -12 l1830 3 120 26 c751 168 1295 712
1463 1463 l26 120 3 1830 c3 1616 2 1843 -12 1943 -87 624 -479 1159 -1051
1434 -126 60 -311 121 -456 150 l-113 23 -1825 1 c-1483 2 -1843 0 -1923 -11z
m2157 -1425 c155 -30 271 -71 431 -150 435 -215 758 -621 879 -1105 38 -151
46 -283 46 -762 l0 -466 -81 7 c-276 23 -538 204 -663 460 -59 119 -74 182
-87 351 -21 285 -82 437 -243 603 -116 120 -238 191 -401 234 -111 30 -297 29
-409 -1 -378 -101 -635 -436 -636 -826 -1 -333 -223 -653 -536 -771 -77 -29
-195 -54 -255 -54 l-40 0 3 533 c4 590 5 600 79 827 187 573 684 1009 1276
1119 154 29 160 29 353 26 129 -2 203 -9 284 -25z m-705 -2928 c206 -118 380
-215 385 -215 6 0 188 102 404 227 l393 227 247 -142 c136 -78 267 -156 292
-173 145 -98 257 -256 311 -437 21 -68 23 -100 27 -397 l4 -322 -229 131
c-125 73 -324 187 -441 255 l-212 123 -393 -226 c-215 -124 -397 -226 -403
-226 -6 0 -186 100 -399 223 -214 123 -393 223 -399 223 -6 0 -204 -113 -441
-250 l-430 -248 -3 297 c-3 322 3 379 51 498 38 92 85 167 157 243 81 87 100
100 409 279 218 125 258 145 275 136 12 -6 189 -108 395 -226z"/>
</g>
</svg>
