<svg width="100" height="100" viewBox="0 0 100 100" fill="none" xmlns="http://www.w3.org/2000/svg">
<path fill-rule="evenodd" clip-rule="evenodd" d="M85 4H15C8.92487 4 4 8.92487 4 15V85C4 91.0751 8.92487 96 15 96H85C91.0751 96 96 91.0751 96 85V15C96 8.92487 91.0751 4 85 4ZM15 0C6.71573 0 0 6.71573 0 15V85C0 93.2843 6.71573 100 15 100H85C93.2843 100 100 93.2843 100 85V15C100 6.71573 93.2843 0 85 0H15Z" fill="url(#paint0_linear)"/>
<path d="M45.9688 58.8125V58.7188L42.875 56L45.9688 53.375C46.3438 53 46.3438 52.5312 46.0625 52.1562L44.375 50.375C44.0938 50.0938 43.5312 50.0938 43.25 50.375L37.8125 55.4375C37.5312 55.8125 37.5312 56.2812 37.8125 56.6562L43.25 61.7188C43.4375 61.8125 43.625 61.9062 43.8125 61.9062C44 61.9062 44.2812 61.8125 44.375 61.7188L46.0625 59.9375C46.3438 59.5625 46.3438 59.0938 45.9688 58.8125ZM66.5938 35.1875L58.8125 27.3125C57.9688 26.4688 56.75 26 55.625 26H36.5C33.9688 26 32 28.0625 32 30.5V69.5C32 72.0312 33.9688 74 36.5 74H63.5C65.9375 74 68 72.0312 68 69.5V38.375C68 37.25 67.4375 36.0312 66.5938 35.1875ZM56 30.875L63.125 38H56V30.875ZM63.5 69.5H36.5V30.5H51.5V40.25C51.5 41.5625 52.4375 42.5 53.75 42.5H63.5V69.5ZM51.5938 46.0625C51.125 45.9688 50.75 46.25 50.5625 46.625L45.5 64.3438C45.3125 64.7188 45.5938 65.1875 46.0625 65.2812L48.3125 66.0312C48.7812 66.125 49.25 65.8438 49.3438 65.4688L54.5 47.75C54.5938 47.375 54.3125 46.9062 53.9375 46.7188L51.5938 46.0625ZM53.9375 53.2812V53.375L57.0312 56L53.9375 58.7188C53.5625 59.0938 53.5625 59.5625 53.8438 59.9375L55.5312 61.7188C55.8125 62 56.375 62 56.6562 61.7188L62.0938 56.6562C62.375 56.2812 62.375 55.7188 62.0938 55.4375L56.6562 50.375C56.375 50.0938 55.8125 50.0938 55.5312 50.375L53.8438 52.1562C53.5625 52.4375 53.5625 53 53.9375 53.2812Z" fill="url(#paint1_linear)"/>
<defs>
<linearGradient id="paint0_linear" x1="0" y1="0" x2="118.032" y2="69.2794" gradientUnits="userSpaceOnUse">
<stop stop-color="#76D1C1"/>
<stop offset="0.315972" stop-color="#5EA8B5"/>
<stop offset="0.63368" stop-color="#3C6FA3"/>
<stop offset="0.99" stop-color="#274B98"/>
</linearGradient>
<linearGradient id="paint1_linear" x1="32" y1="26" x2="79.8563" y2="47.0672" gradientUnits="userSpaceOnUse">
<stop stop-color="#76D1C1"/>
<stop offset="0.315972" stop-color="#5EA8B5"/>
<stop offset="0.63368" stop-color="#3C6FA3"/>
<stop offset="0.99" stop-color="#274B98"/>
</linearGradient>
</defs>
</svg>
