<svg width="28" height="27" viewBox="0 0 28 27" fill="none" xmlns="http://www.w3.org/2000/svg">
<path d="M9.56299 21.3281C9.56299 21.2188 9.45361 21.1094 9.28955 21.1094C9.12549 21.1094 9.01611 21.2188 9.01611 21.3281C9.01611 21.4375 9.12549 21.5469 9.28955 21.4922C9.45361 21.4922 9.56299 21.4375 9.56299 21.3281ZM7.86768 21.0547C7.86768 21.1641 7.97705 21.3281 8.14111 21.3281C8.25049 21.3828 8.41455 21.3281 8.46924 21.2188C8.46924 21.1094 8.41455 21 8.25049 20.9453C8.08643 20.8906 7.92236 20.9453 7.86768 21.0547ZM10.3286 21C10.1646 21 10.0552 21.1094 10.0552 21.2734C10.0552 21.3828 10.2192 21.4375 10.3833 21.3828C10.5474 21.3281 10.6567 21.2734 10.6021 21.1641C10.6021 21.0547 10.438 20.9453 10.3286 21ZM13.8833 0C6.33643 0 0.539551 5.79688 0.539551 13.3438C0.539551 19.4141 4.31299 24.6094 9.78174 26.4688C10.4927 26.5781 10.7114 26.1406 10.7114 25.8125C10.7114 25.4297 10.7114 23.5703 10.7114 22.4219C10.7114 22.4219 6.8833 23.2422 6.06299 20.7812C6.06299 20.7812 5.46143 19.1953 4.58643 18.8125C4.58643 18.8125 3.32861 17.9375 4.64111 17.9375C4.64111 17.9375 6.0083 18.0469 6.77393 19.3594C7.97705 21.4922 9.9458 20.8906 10.7661 20.5078C10.8755 19.6328 11.2036 19.0312 11.6411 18.6484C8.57861 18.3203 5.46143 17.8828 5.46143 12.6328C5.46143 11.1016 5.89893 10.3906 6.77393 9.40625C6.60986 9.02344 6.17236 7.60156 6.93799 5.6875C8.03174 5.35938 10.7114 7.16406 10.7114 7.16406C11.8052 6.83594 12.9536 6.72656 14.1021 6.72656C15.3052 6.72656 16.4536 6.83594 17.5474 7.16406C17.5474 7.16406 20.1724 5.30469 21.3208 5.6875C22.0864 7.60156 21.5942 9.02344 21.4849 9.40625C22.3599 10.3906 22.9067 11.1016 22.9067 12.6328C22.9067 17.8828 19.6802 18.3203 16.6177 18.6484C17.1099 19.0859 17.5474 19.9062 17.5474 21.2188C17.5474 23.0234 17.4927 25.3203 17.4927 25.7578C17.4927 26.1406 17.7661 26.5781 18.4771 26.4141C23.9458 24.6094 27.6646 19.4141 27.6646 13.3438C27.6646 5.79688 21.4849 0 13.8833 0ZM5.84424 18.8672C5.73486 18.9219 5.78955 19.0859 5.84424 19.1953C5.95361 19.25 6.06299 19.3047 6.17236 19.25C6.22705 19.1953 6.22705 19.0312 6.11768 18.9219C6.0083 18.8672 5.89893 18.8125 5.84424 18.8672ZM5.24268 18.4297C5.18799 18.5391 5.24268 18.5938 5.35205 18.6484C5.46143 18.7031 5.5708 18.7031 5.62549 18.5938C5.62549 18.5391 5.5708 18.4844 5.46143 18.4297C5.35205 18.375 5.29736 18.375 5.24268 18.4297ZM6.99268 20.3984C6.93799 20.4531 6.93799 20.6172 7.10205 20.7266C7.21143 20.8359 7.37549 20.8906 7.43018 20.7812C7.48486 20.7266 7.48486 20.5625 7.37549 20.4531C7.26611 20.3438 7.10205 20.2891 6.99268 20.3984ZM6.39111 19.5781C6.28174 19.6328 6.28174 19.7969 6.39111 19.9062C6.50049 20.0156 6.60986 20.0703 6.71924 20.0156C6.77393 19.9609 6.77393 19.7969 6.71924 19.6875C6.60986 19.5781 6.50049 19.5234 6.39111 19.5781Z" fill="url(#paint0_linear)"/>
<defs>
<linearGradient id="paint0_linear" x1="0.539551" y1="0" x2="32.1599" y2="19.0076" gradientUnits="userSpaceOnUse">
<stop stop-color="#76D1C1"/>
<stop offset="0.315972" stop-color="#5EA8B5"/>
<stop offset="0.63368" stop-color="#3C6FA3"/>
<stop offset="0.99" stop-color="#274B98"/>
</linearGradient>
</defs>
</svg>
