<svg width="60" height="36" viewBox="0 0 60 36" fill="none" xmlns="http://www.w3.org/2000/svg">
<path d="M30 7.5C24.9375 7.5 21 12.2812 21 18C21 23.8125 24.9375 28.5 30 28.5C34.9688 28.5 39 23.8125 39 18C39 12.2812 34.9688 7.5 30 7.5ZM33.75 23.25C33.75 23.7188 33.375 24 33 24H27C26.5312 24 26.25 23.7188 26.25 23.25V21.75C26.25 21.375 26.5312 21 27 21H28.5V15.8438H28.4062C28.3125 15.9375 28.125 16.0312 28.0312 16.0312C27.75 16.0312 27.4688 15.8438 27.375 15.6562L26.5312 14.4375C26.4375 14.3438 26.4375 14.1562 26.4375 13.9688C26.4375 13.7812 26.5312 13.5 26.7188 13.4062L28.2188 12.4688C28.5 12.1875 28.9688 12 29.4375 12H30.75C31.125 12 31.5 12.375 31.5 12.75V21H33C33.375 21 33.75 21.375 33.75 21.75V23.25ZM57 0H3C1.3125 0 0 1.40625 0 3V33C0 34.6875 1.3125 36 3 36H57C58.5938 36 60 34.6875 60 33V3C60 1.40625 58.5938 0 57 0ZM55.5 25.5C52.125 25.5 49.5 28.2188 49.5 31.5H10.5C10.5 28.2188 7.78125 25.5 4.5 25.5V10.5C7.78125 10.5 10.5 7.875 10.5 4.5H49.5C49.5 7.875 52.125 10.5 55.5 10.5V25.5Z" fill="url(#paint0_linear)"/>
<defs>
<linearGradient id="paint0_linear" x1="0" y1="0" x2="48.6549" y2="47.5972" gradientUnits="userSpaceOnUse">
<stop stop-color="#76D1C1"/>
<stop offset="0.315972" stop-color="#5EA8B5"/>
<stop offset="0.63368" stop-color="#3C6FA3"/>
<stop offset="0.99" stop-color="#274B98"/>
</linearGradient>
</defs>
</svg>
