<svg width="100" height="100" viewBox="0 0 100 100" fill="none" xmlns="http://www.w3.org/2000/svg">
<path fill-rule="evenodd" clip-rule="evenodd" d="M85 4H15C8.92487 4 4 8.92487 4 15V85C4 91.0751 8.92487 96 15 96H85C91.0751 96 96 91.0751 96 85V15C96 8.92487 91.0751 4 85 4ZM15 0C6.71573 0 0 6.71573 0 15V85C0 93.2843 6.71573 100 15 100H85C93.2843 100 100 93.2843 100 85V15C100 6.71573 93.2843 0 85 0H15Z" fill="url(#paint0_linear)"/>
<path fill-rule="evenodd" clip-rule="evenodd" d="M58.5234 37H22.1252C21.7709 37 21.443 37.1875 21.2633 37.493L17.1457 44.493C16.7535 45.1596 17.2342 46 18.0076 46H54.4058C54.7601 46 55.088 45.8125 55.2677 45.507L59.3854 38.507C59.7775 37.8404 59.2968 37 58.5234 37ZM22.1252 33C20.3534 33 18.7139 33.9377 17.8156 35.4649L13.6979 42.4649C11.7372 45.7981 14.1405 50 18.0076 50H19.2655V61C19.2655 64.866 22.3995 68 26.2655 68H60.2655H62.2655H64.2655H74.2655C78.1315 68 81.2655 64.866 81.2655 61V50H81.5234C85.3905 50 87.7938 45.7981 85.8331 42.4649L81.7154 35.4649C80.8171 33.9377 79.1776 33 77.4058 33H66.0076C64.4666 33 63.1581 33.6672 62.2655 34.6808C61.3729 33.6672 60.0644 33 58.5234 33H22.1252ZM64.2655 44.9V64H74.2655C75.9224 64 77.2655 62.6569 77.2655 61V50H70.1252C68.3534 50 66.7139 49.0623 65.8156 47.5351L64.2655 44.9ZM23.2655 61V50H54.4058C56.1776 50 57.8171 49.0623 58.7154 47.5351L60.2655 44.9V64H26.2655C24.6087 64 23.2655 62.6569 23.2655 61ZM77.4058 37H66.0076C65.2342 37 64.7535 37.8404 65.1457 38.507L69.2633 45.507C69.443 45.8125 69.7709 46 70.1252 46H81.5234C82.2968 46 82.7775 45.1596 82.3854 44.493L78.2677 37.493C78.088 37.1875 77.7601 37 77.4058 37Z" fill="url(#paint1_linear)"/>
<defs>
<linearGradient id="paint0_linear" x1="0" y1="0" x2="118.032" y2="69.2794" gradientUnits="userSpaceOnUse">
<stop stop-color="#76D1C1"/>
<stop offset="0.315972" stop-color="#5EA8B5"/>
<stop offset="0.63368" stop-color="#3C6FA3"/>
<stop offset="0.99" stop-color="#274B98"/>
</linearGradient>
<linearGradient id="paint1_linear" x1="13" y1="33" x2="59.2946" y2="90.0872" gradientUnits="userSpaceOnUse">
<stop stop-color="#76D1C1"/>
<stop offset="0.315972" stop-color="#5EA8B5"/>
<stop offset="0.63368" stop-color="#3C6FA3"/>
<stop offset="0.99" stop-color="#274B98"/>
</linearGradient>
</defs>
</svg>
