<svg width="100" height="100" viewBox="0 0 100 100" fill="none" xmlns="http://www.w3.org/2000/svg">
<path fill-rule="evenodd" clip-rule="evenodd" d="M85 4H15C8.92487 4 4 8.92487 4 15V85C4 91.0751 8.92487 96 15 96H85C91.0751 96 96 91.0751 96 85V15C96 8.92487 91.0751 4 85 4ZM15 0C6.71573 0 0 6.71573 0 15V85C0 93.2843 6.71573 100 15 100H85C93.2843 100 100 93.2843 100 85V15C100 6.71573 93.2843 0 85 0H15Z" fill="url(#paint0_linear)"/>
<path d="M72.5 32H27.5C24.9688 32 23 34.0625 23 36.5V63.5C23 66.0312 24.9688 68 27.5 68H72.5C74.9375 68 77 66.0312 77 63.5V36.5C77 34.0625 74.9375 32 72.5 32ZM73.25 63.5C73.25 63.9688 72.875 64.25 72.5 64.25H27.5C27.0312 64.25 26.75 63.9688 26.75 63.5V36.5C26.75 36.125 27.0312 35.75 27.5 35.75H72.5C72.875 35.75 73.25 36.125 73.25 36.5V63.5ZM38.9375 51.3125V48.6875C38.9375 48.125 38.375 47.5625 37.8125 47.5625H35.1875C34.5312 47.5625 34.0625 48.125 34.0625 48.6875V51.3125C34.0625 51.9688 34.5312 52.4375 35.1875 52.4375H37.8125C38.375 52.4375 38.9375 51.9688 38.9375 51.3125ZM47.9375 51.3125V48.6875C47.9375 48.125 47.375 47.5625 46.8125 47.5625H44.1875C43.5312 47.5625 43.0625 48.125 43.0625 48.6875V51.3125C43.0625 51.9688 43.5312 52.4375 44.1875 52.4375H46.8125C47.375 52.4375 47.9375 51.9688 47.9375 51.3125ZM56.9375 51.3125V48.6875C56.9375 48.125 56.375 47.5625 55.8125 47.5625H53.1875C52.5312 47.5625 52.0625 48.125 52.0625 48.6875V51.3125C52.0625 51.9688 52.5312 52.4375 53.1875 52.4375H55.8125C56.375 52.4375 56.9375 51.9688 56.9375 51.3125ZM65.9375 51.3125V48.6875C65.9375 48.125 65.375 47.5625 64.8125 47.5625H62.1875C61.5312 47.5625 61.0625 48.125 61.0625 48.6875V51.3125C61.0625 51.9688 61.5312 52.4375 62.1875 52.4375H64.8125C65.375 52.4375 65.9375 51.9688 65.9375 51.3125ZM34.4375 59V56.375C34.4375 55.8125 33.875 55.25 33.3125 55.25H30.6875C30.0312 55.25 29.5625 55.8125 29.5625 56.375V59C29.5625 59.6562 30.0312 60.125 30.6875 60.125H33.3125C33.875 60.125 34.4375 59.6562 34.4375 59ZM70.4375 59V56.375C70.4375 55.8125 69.875 55.25 69.3125 55.25H66.6875C66.0312 55.25 65.5625 55.8125 65.5625 56.375V59C65.5625 59.6562 66.0312 60.125 66.6875 60.125H69.3125C69.875 60.125 70.4375 59.6562 70.4375 59ZM34.4375 43.625V41C34.4375 40.4375 33.875 39.875 33.3125 39.875H30.6875C30.0312 39.875 29.5625 40.4375 29.5625 41V43.625C29.5625 44.2812 30.0312 44.75 30.6875 44.75H33.3125C33.875 44.75 34.4375 44.2812 34.4375 43.625ZM43.4375 43.625V41C43.4375 40.4375 42.875 39.875 42.3125 39.875H39.6875C39.0312 39.875 38.5625 40.4375 38.5625 41V43.625C38.5625 44.2812 39.0312 44.75 39.6875 44.75H42.3125C42.875 44.75 43.4375 44.2812 43.4375 43.625ZM52.4375 43.625V41C52.4375 40.4375 51.875 39.875 51.3125 39.875H48.6875C48.0312 39.875 47.5625 40.4375 47.5625 41V43.625C47.5625 44.2812 48.0312 44.75 48.6875 44.75H51.3125C51.875 44.75 52.4375 44.2812 52.4375 43.625ZM61.4375 43.625V41C61.4375 40.4375 60.875 39.875 60.3125 39.875H57.6875C57.0312 39.875 56.5625 40.4375 56.5625 41V43.625C56.5625 44.2812 57.0312 44.75 57.6875 44.75H60.3125C60.875 44.75 61.4375 44.2812 61.4375 43.625ZM70.4375 43.625V41C70.4375 40.4375 69.875 39.875 69.3125 39.875H66.6875C66.0312 39.875 65.5625 40.4375 65.5625 41V43.625C65.5625 44.2812 66.0312 44.75 66.6875 44.75H69.3125C69.875 44.75 70.4375 44.2812 70.4375 43.625ZM61.25 58.4375V56.9375C61.25 56.375 60.6875 55.8125 60.125 55.8125H39.875C39.2188 55.8125 38.75 56.375 38.75 56.9375V58.4375C38.75 59.0938 39.2188 59.5625 39.875 59.5625H60.125C60.6875 59.5625 61.25 59.0938 61.25 58.4375Z" fill="url(#paint1_linear)"/>
<defs>
<linearGradient id="paint0_linear" x1="0" y1="0" x2="118.032" y2="69.2794" gradientUnits="userSpaceOnUse">
<stop stop-color="#76D1C1"/>
<stop offset="0.315972" stop-color="#5EA8B5"/>
<stop offset="0.63368" stop-color="#3C6FA3"/>
<stop offset="0.99" stop-color="#274B98"/>
</linearGradient>
<linearGradient id="paint1_linear" x1="23" y1="32" x2="71.2747" y2="74.5028" gradientUnits="userSpaceOnUse">
<stop stop-color="#76D1C1"/>
<stop offset="0.315972" stop-color="#5EA8B5"/>
<stop offset="0.63368" stop-color="#3C6FA3"/>
<stop offset="0.99" stop-color="#274B98"/>
</linearGradient>
</defs>
</svg>
