<svg id="Layer_1" data-name="Layer 1" xmlns="http://www.w3.org/2000/svg" xmlns:xlink="http://www.w3.org/1999/xlink" viewBox="0 0 75 75"><defs><style>.cls-1{fill:url(#linear-gradient);}.cls-2{fill:url(#linear-gradient-2);}</style><linearGradient id="linear-gradient" x1="22.45" y1="18.72" x2="59.69" y2="55.96" gradientUnits="userSpaceOnUse"><stop offset="0" stop-color="#8bf4cc"/><stop offset="0.11" stop-color="#85ebc9"/><stop offset="0.31" stop-color="#76d1c1"/><stop offset="0.55" stop-color="#5ea8b5"/><stop offset="0.83" stop-color="#3c6fa3"/><stop offset="0.99" stop-color="#274b98"/></linearGradient><linearGradient id="linear-gradient-2" x1="11.59" y1="29.58" x2="48.83" y2="66.82" xlink:href="#linear-gradient"/></defs><path class="cls-1" d="M37.5,15h0a18,18,0,0,0-18,18v9h0a9,9,0,0,0,9-9,9,9,0,0,1,9-9h0a9,9,0,0,1,9,9,9,9,0,0,0,9,9V33A18,18,0,0,0,37.5,15Z"/><path class="cls-2" d="M51.26,47.16l-5.22-3L37.5,49.07,29,44.14l-5.22,3A8.47,8.47,0,0,0,19.5,54.5V60L29,54.53l8.53,4.91L46,54.53,55.5,60V54.5A8.47,8.47,0,0,0,51.26,47.16Z"/></svg>